<?xml version="1.0" standalone="no"?><!DOCTYPE svg PUBLIC "-//W3C//DTD SVG 1.1//EN" "http://www.w3.org/Graphics/SVG/1.1/DTD/svg11.dtd"><svg t="1615394276157" class="icon" viewBox="0 0 1024 1024" version="1.1" xmlns="http://www.w3.org/2000/svg" p-id="845" xmlns:xlink="http://www.w3.org/1999/xlink" width="200" height="200"><defs><style type="text/css"></style></defs><path d="M292.318088 231.591126l-59.711844 0 0-59.717984c0-16.748419-13.586409-30.330735-30.334828-30.330735-16.756606 0-30.335852 13.581293-30.335852 30.330735l0 59.717984-59.719007 0C95.466091 231.591126 81.884798 245.178559 81.884798 261.922884c0 16.758652 13.581293 30.340968 30.331758 30.340968L171.935564 292.263853l0 59.71696c0 16.749442 13.580269 30.331758 30.335852 30.331758 16.748419 0 30.334828-13.581293 30.334828-30.331758l0-59.71696 59.711844 0c16.756606 0 30.336875-13.582316 30.336875-30.340968C322.653939 245.178559 309.074693 231.591126 292.318088 231.591126L292.318088 231.591126zM292.318088 231.591126M453.969445 107.688436l-37.265667 0L416.703777 70.422769c0-10.452029-8.476028-18.930104-18.930104-18.930104-10.455099 0-18.928057 8.478075-18.928057 18.930104l0 37.265667-37.261574 0c-10.455099 0-18.931127 8.472958-18.931127 18.924987 0 10.456122 8.475005 18.930104 18.931127 18.930104l37.261574 0 0 37.264644c0 10.453052 8.472958 18.92601 18.928057 18.92601 10.453052 0 18.930104-8.472958 18.930104-18.92601l0-37.264644 37.265667 0c10.453052 0 18.92601-8.472958 18.92601-18.930104C472.894432 116.161394 464.422497 107.688436 453.969445 107.688436L453.969445 107.688436zM453.969445 107.688436M311.309589 54.842963l-22.336683 0L288.972906 32.508326c0-6.269785-5.074565-11.346396-11.343327-11.346396-6.265691 0-11.346396 5.076612-11.346396 11.346396l0 22.334636-22.334636 0c-6.265691 0-11.346396 5.076612-11.346396 11.346396 0 6.259552 5.080705 11.34128 11.346396 11.34128l22.334636 0 0 22.334636c0 6.268761 5.080705 11.346396 11.346396 11.346396 6.267738 0 11.343327-5.076612 11.343327-11.346396L288.972906 77.530639 311.309589 77.530639c6.258528 0 11.34435-5.081728 11.34435-11.34128C322.653939 59.919575 317.574258 54.83887 311.309589 54.842963L311.309589 54.842963zM311.309589 54.842963M853.395755 614.474701c-23.59944-88.116721-74.179318-156.208402-153.206028-202.443331-6.831579-3.996003-13.932286-7.500819-21.019691-11.046568-33.313667-8.486261-77.361794-16.055642-128.554631-16.055642-51.221489 0-95.294176 7.578591-128.609889 16.070992-123.912923 57.743007-175.284838 145.710325-184.243866 274.207651-2.321877 33.371995-0.390902 66.450302 8.033961 99.139753 13.150482 51.55304 58.509462 90.146956 112.968685 90.053835 128.249686-0.294712 256.59761 0 384.852412-0.195451 41.206412-0.099261 72.930887-18.573994 95.949091-52.232514 11.702506-17.118855 17.211976-36.558564 20.310541-56.966319C867.329064 707.807203 865.775689 660.797634 853.395755 614.474701L853.395755 614.474701zM637.029348 734.404925 584.992285 734.404925c-0.677427 0-1.159404 0.580213-1.159404 1.160427l0 24.951225-0.289595 0c0.387832 2.030235 0.677427 4.159731 0.677427 6.289227 0 17.89452-14.798001 32.491953-32.983139 32.491953-18.182068 0-32.983139-14.498173-32.983139-32.491953 0-2.227733 0.293688-4.257969 0.683567-6.289227l-0.683567 0L518.254435 735.561258c0-0.668218-0.575097-1.156334-1.157357-1.156334l-51.552017 0-0.098237 0c-14.508406 0-26.407387-11.607339-26.407387-26.017508 0-14.415286 11.80586-26.022625 26.407387-26.022625l0.098237 0 51.548947 0c0.677427 0 1.16145-0.575097 1.16145-1.156334l0-23.510413c0-0.673334-0.575097-1.154287-1.16145-1.154287l-51.548947 0 0-0.094144-0.098237 0c-14.508406 0-26.407387-11.613479-26.407387-26.018531 0-14.321142 11.80586-26.022625 26.407387-26.022625l0.098237 0 47.197857 0c0.491186 0 0.973162-0.284479 1.067306-0.767478 0.387832-1.071399 0.869809-2.034329 1.448999-3.003398 0.291642-0.481976 0.192381-1.06219-0.190335-1.450022l-58.421457-57.551649c-7.351417-7.152896-4.933349-21.278587 5.318112-31.337666 10.252484-10.058057 24.572603-12.477148 31.824759-5.220898l56.966319 56.193724c0.481976 0.481976 1.258664 0.481976 1.74064 0l52.712444-55.323916c8.320486-8.995867 25.24696-6.769157 35.595635 3.481281 10.251461 10.254531 15.377192 19.537946 5.220898 30.854667l-61.901715 62.388808c-0.289595 0.284479-0.383739 0.575097-0.383739 0.962929 0.094144 0.580213 0.575097 1.063213 1.16145 1.063213l51.936779 0 0 0.093121c14.508406 0.099261 26.209889 11.705576 26.209889 26.027741 0 14.311932-11.702506 25.914154-26.209889 25.914154L584.992285 656.73307c-0.677427 0-1.159404 0.58533-1.159404 1.160427l0 23.505296c0 0.678451 0.57919 1.16145 1.159404 1.16145l52.037063 0 0 0.093121c14.508406 0.098237 26.207843 11.7066 26.207843 26.017508C663.237191 722.797586 651.537754 734.306687 637.029348 734.404925L637.029348 734.404925zM637.029348 734.404925M402.353983 367.29456c34.767782-10.414166 86.447712-21.586601 148.261422-21.586601 61.654075 0 113.226558 11.111036 147.983084 21.507807 6.238062-9.143223 11.384259-18.995595 15.233929-29.658424 3.481281-9.675341 5.414302-19.832658 8.122988-29.7935 6.185874-23.112348 0.192381-43.039149-17.700092-58.318104-24.183747-20.600136-51.744398-23.024343-80.76735-10.934005-2.028189 0.869809-3.38202 1.455139-5.314018-0.481976-37.334229-35.303993-97.305992-35.692849-134.930839-0.771571-1.74064 1.64138-2.994188 2.030235-5.319135 0.963953-15.282024-7.060799-31.238406-8.506727-47.584666-5.1288-31.053188 6.386441-56.679794 32.791782-52.136323 68.86837C381.272894 326.216061 389.235224 347.916249 402.353983 367.29456L402.353983 367.29456zM402.353983 367.29456" p-id="846"></path></svg>