<?xml version="1.0" standalone="no"?><!DOCTYPE svg PUBLIC "-//W3C//DTD SVG 1.1//EN" "http://www.w3.org/Graphics/SVG/1.1/DTD/svg11.dtd"><svg t="1622031917321" class="icon" viewBox="0 0 1024 1024" version="1.1" xmlns="http://www.w3.org/2000/svg" p-id="3309" xmlns:xlink="http://www.w3.org/1999/xlink" width="200" height="200"><defs><style type="text/css"></style></defs><path d="M860.98432 159.85664h-101.75488V101.34016a29.83936 29.83936 0 0 0-59.67872 0v58.51648H323.712V101.34016a29.83936 29.83936 0 0 0-59.67872 0v58.51648H168.1152a86.04672 86.04672 0 0 0-86.23104 85.67296v621.09696A86.04672 86.04672 0 0 0 168.1152 952.32h692.86912A86.04672 86.04672 0 0 0 947.2 866.62656V245.5296a86.04672 86.04672 0 0 0-86.21568-85.67296zM168.1152 219.136h95.91808V276.48a29.83936 29.83936 0 0 0 59.67872 0V219.136h375.83872V276.48a29.83936 29.83936 0 0 0 59.67872 0V219.136h101.75488a26.49088 26.49088 0 0 1 26.55232 26.37824v97.63328H141.56288V245.5296a26.49088 26.49088 0 0 1 26.55232-26.3936z m692.86912 673.8688H168.1152a26.49088 26.49088 0 0 1-26.55232-26.37824V402.432h745.984v464.18944a26.49088 26.49088 0 0 1-26.56256 26.38336z" fill="#2966C1" p-id="3310"></path><path d="M358.62528 485.64736H218.2912a29.34784 29.34784 0 1 0 0 58.68544h140.33408a29.34784 29.34784 0 1 0 0-58.68544z m222.77632 0H441.07264a29.34784 29.34784 0 1 0 0 58.68544h140.33408a29.34784 29.34784 0 1 0-0.00512-58.68544z m-222.77632 263.44448H218.2912a29.34272 29.34272 0 1 0 0 58.68032h140.33408a29.34272 29.34272 0 1 0 0-58.68032z m222.77632 0H441.07264a29.34272 29.34272 0 1 0 0 58.68032h140.33408a29.34272 29.34272 0 1 0-0.00512-58.68032z m82.432-204.75904h140.32896a29.34784 29.34784 0 1 0 0-58.68544h-140.3136a29.34784 29.34784 0 1 0 0 58.68544z m-305.20832 73.03168H218.2912a29.34784 29.34784 0 1 0 0 58.68544h140.33408a29.34784 29.34784 0 1 0 0-58.68544z m222.77632 0H441.07264a29.34784 29.34784 0 1 0 0 58.68544h140.33408a29.34784 29.34784 0 1 0-0.00512-58.68544z m222.77632 0h-140.32896a29.34784 29.34784 0 1 0 0 58.68544h140.32896a29.34784 29.34784 0 1 0 0-58.68544z" fill="#FD9A16" p-id="3311"></path></svg>