<?xml version="1.0" standalone="no"?>
<!DOCTYPE svg PUBLIC "-//W3C//DTD SVG 1.1//EN" "http://www.w3.org/Graphics/SVG/1.1/DTD/svg11.dtd">
<svg t="1616059524999" class="icon" viewBox="0 0 1024 1024" version="1.1"
    xmlns="http://www.w3.org/2000/svg" p-id="6519"
    xmlns:xlink="http://www.w3.org/1999/xlink" width="200" height="200">
    <defs>
        <style type="text/css"></style>
    </defs>
    <path d="M498.88 66.24a672 672 0 0 0-128 283.2h274.24A973.76 973.76 0 0 0 523.52 64H497.28zM368.96 629.44h291.84a733.44 733.44 0 0 0-2.56-216h-297.28a736 736 0 0 0 8 216zM710.08 349.44H928a448 448 0 0 0-325.12-276.16 994.56 994.56 0 0 1 107.2 276.16zM308.48 349.44A811.2 811.2 0 0 1 416 74.88a448 448 0 0 0-320 274.56zM525.12 957.76a667.52 667.52 0 0 0 123.84-264.32H384A987.84 987.84 0 0 0 500.48 960H526.72zM721.92 413.44a800 800 0 0 1 0 216h222.08a439.04 439.04 0 0 0 4.8-216zM305.28 629.44a815.04 815.04 0 0 1-6.4-216h-224a439.04 439.04 0 0 0 4.8 216zM711.68 693.44a805.44 805.44 0 0 1-102.72 256 449.6 449.6 0 0 0 312.32-256zM318.08 693.44H102.72a448 448 0 0 0 320 256 999.68 999.68 0 0 1-104.64-256z" p-id="6520"></path>
</svg>