<?xml version="1.0" standalone="no"?><!DOCTYPE svg PUBLIC "-//W3C//DTD SVG 1.1//EN" "http://www.w3.org/Graphics/SVG/1.1/DTD/svg11.dtd"><svg t="1622032726344" class="icon" viewBox="0 0 1024 1024" version="1.1" xmlns="http://www.w3.org/2000/svg" p-id="3789" xmlns:xlink="http://www.w3.org/1999/xlink" width="200" height="200"><defs><style type="text/css"></style></defs><path d="M876.51328 942.08h-361.89696a432.60928 432.60928 0 0 1-432.128-452.97664C92.63616 268.41088 273.49504 87.552 494.21824 77.40928A432.6144 432.6144 0 0 1 947.2 509.52192a28.3136 28.3136 0 1 1-56.63232 0 375.97696 375.97696 0 0 0-393.74336-375.54688C305.024 142.80192 147.87584 299.94496 139.05408 491.7248a375.97184 375.97184 0 0 0 375.56224 393.728h339.26656l-107.86304-107.8528a28.3136 28.3136 0 0 1 40.04352-40.04352l123.86304 123.8528A47.2576 47.2576 0 0 1 876.51328 942.08z" fill="#2966C1" p-id="3790"></path><path d="M647.41888 543.744h-102.00576v-45.056h102.00576a28.19584 28.19584 0 1 0 0-56.38144h-70.144l87.3728-86.26688a27.9296 27.9296 0 0 0 0-39.86944 28.81536 28.81536 0 0 0-40.37632 0l-105.22112 103.84896c-0.73728-0.05632-1.43872-0.22016-2.19136-0.22016a28.91776 28.91776 0 0 0-5.3248 0.512l-105.5488-104.192a28.81536 28.81536 0 0 0-40.37632 0 27.93472 27.93472 0 0 0 0 39.86944l87.3728 86.26688H386.29888a28.19584 28.19584 0 1 0 0 56.38144h102.00576v45.056H386.29888a28.19072 28.19072 0 1 0 0 56.38144h102.00576v105.7024a28.55424 28.55424 0 0 0 57.10848 0v-105.6768h102.00576a28.19072 28.19072 0 1 0 0-56.35584z" fill="#FD9A16" p-id="3791"></path></svg>