<?xml version="1.0" standalone="no"?><!DOCTYPE svg PUBLIC "-//W3C//DTD SVG 1.1//EN" "http://www.w3.org/Graphics/SVG/1.1/DTD/svg11.dtd"><svg t="1622032760904" class="icon" viewBox="0 0 1024 1024" version="1.1" xmlns="http://www.w3.org/2000/svg" p-id="3949" xmlns:xlink="http://www.w3.org/1999/xlink" width="200" height="200"><defs><style type="text/css"></style></defs><path d="M152.61696 942.08h361.984a432.68096 432.68096 0 0 0 432.20992-453.06368c-10.15296-220.75392-191.04768-401.63328-411.81184-411.78624A432.6912 432.6912 0 0 0 81.92 509.44a28.31872 28.31872 0 0 0 56.64256 0 376.04864 376.04864 0 0 1 393.81504-375.61344c191.83616 8.82688 349.01504 165.99552 357.8368 357.81632a376.04864 376.04864 0 0 1-375.6288 393.81504H175.25248L283.136 777.58464a28.31872 28.31872 0 0 0-40.04864-40.05376l-123.904 123.8784A47.26272 47.26272 0 0 0 152.61696 942.08z" fill="#2966C1" p-id="3950"></path><path d="M381.75744 543.6416h102.02624v-45.08672H381.75744a28.20096 28.20096 0 1 1 0-56.39168h70.144L364.51328 355.88096a27.93984 27.93984 0 0 1 0-39.87968 28.82048 28.82048 0 0 1 40.38656 0l105.25184 103.936c0.73728-0.05632 1.43872-0.22016 2.18624-0.22016a28.89728 28.89728 0 0 1 5.32992 0.512l105.56928-104.22272a28.81536 28.81536 0 0 1 40.38144 0 27.93984 27.93984 0 0 1 0 39.87968L576.2304 442.1632h66.69312a28.20096 28.20096 0 1 1 0 56.39168h-102.02624v45.08672h102.02624a28.19584 28.19584 0 1 1 0 56.39168h-102.02624v105.72288a28.55936 28.55936 0 0 1-57.11872 0v-105.72288H381.75744a28.19584 28.19584 0 1 1 0-56.39168z" fill="#FD9A16" p-id="3951"></path></svg>