<?xml version="1.0" standalone="no"?><!DOCTYPE svg PUBLIC "-//W3C//DTD SVG 1.1//EN" "http://www.w3.org/Graphics/SVG/1.1/DTD/svg11.dtd"><svg t="1622536546315" class="icon" viewBox="0 0 1024 1024" version="1.1" xmlns="http://www.w3.org/2000/svg" p-id="2862" xmlns:xlink="http://www.w3.org/1999/xlink" width="200" height="200"><defs><style type="text/css"></style></defs><path d="M844.64783 90.739758a87.380775 87.380775 0 0 1 64.739142 28.102932c16.725226 17.862997 25.372282 41.813066 23.893181 66.246687l-13.937689 250.081958a35.69755 35.69755 0 0 1-10.268378 22.385635L461.503612 905.155888a96.141608 96.141608 0 0 1-68.323119 30.236251 88.290991 88.290991 0 0 1-62.605823-27.818488l-214.099965-214.12841a92.842074 92.842074 0 0 1 2.417762-130.928942L566.434497 114.917381c6.001739-5.973295 13.937689-9.614161 22.385635-10.268378l250.081957-13.937689h5.745741z m0-90.737198h-10.268378L584.26905 13.655806a124.585871 124.585871 0 0 0-81.635034 36.892209L55.347984 498.402931a183.266385 183.266385 0 0 0-3.015092 259.468565l213.787079 213.815523A177.805086 177.805086 0 0 0 393.180493 1023.996018c49.77746 0 97.450044-19.939428 132.436487-55.352535L973.187454 521.101453a124.585871 124.585871 0 0 0 36.892208-81.635034l13.596358-250.110402A178.43086 178.43086 0 0 0 844.64783 0.00256z m-215.010181 333.878756a60.472503 60.472503 0 1 1 0 120.945005 60.472503 60.472503 0 0 1 0-120.945005z m0-90.737198a151.209701 151.209701 0 1 0-0.654218 302.419401 151.209701 151.209701 0 0 0 0.654218-302.419401z" p-id="2863"></path></svg>