<?xml version="1.0" standalone="no"?><!DOCTYPE svg PUBLIC "-//W3C//DTD SVG 1.1//EN" "http://www.w3.org/Graphics/SVG/1.1/DTD/svg11.dtd"><svg t="1622536479644" class="icon" viewBox="0 0 1024 1024" version="1.1" xmlns="http://www.w3.org/2000/svg" p-id="2715" xmlns:xlink="http://www.w3.org/1999/xlink" width="200" height="200"><defs><style type="text/css"></style></defs><path d="M498.26289 1024C322.353938 1024 83.134827 993.7101 34.187485 733.103191c-10.978311-63.566129-27.872397-279.406556 245.959681-391.578733 49.37396-29.863282 54.009879-49.487725 54.436497-55.033763a47.013338 47.013338 0 0 0-18.145499-30.261459c-69.908521-3.668918-123.633988-63.907424-120.021953-134.583858 3.612035-70.676434 63.196393-124.999167 133.104914-121.35869 19.226265 0.170647 38.111236 4.835008 55.261293 13.651786a125.340461 125.340461 0 0 1 113.480472 0 125.340461 125.340461 0 0 1 113.082295 0 125.482668 125.482668 0 0 1 137.541746 17.94641 128.838732 128.838732 0 0 1 38.68006 134.669182 126.93317 126.93317 0 0 1-106.597696 89.67517c-8.191072 5.688244-13.793992 14.419699-15.642672 24.288803 0 11.518695 13.936198 34.556084 54.436497 64.845984 188.167119 102.786573 269.622776 233.331778 241.75038 388.592404C927.355593 925.877787 771.668349 1024 498.26289 1024z m-103.355397-669.676992a261.886764 261.886764 0 0 1-73.83341 62.712892l-6.313951 3.412947c-210.976978 85.323663-208.019091 235.863047-197.04078 298.575939C146.416544 872.578939 260.323634 938.676337 498.26289 938.676337c237.967697 0 353.55282-70.392022 379.718743-220.988288 7.593806-42.63339 30.801842-173.576772-201.648257-298.547498a17.263821 17.263821 0 0 0-4.664361-2.986328 313.308492 313.308492 0 0 1-63.708335-61.859656h-213.053187z m22.781418-85.323663h164.959082a130.971823 130.971823 0 0 1 62.001862-91.694497 41.808595 41.808595 0 0 1 30.403666-6.399275 42.718714 42.718714 0 0 0 38.168118-46.700485 42.519626 42.519626 0 0 0-46.188543-38.594737c-10.466369 0-20.534562 3.981771-28.270574 11.092076a41.865477 41.865477 0 0 1-56.939324 0 41.837036 41.837036 0 0 0-56.541148 0 41.837036 41.837036 0 0 1-56.541147 0 41.837036 41.837036 0 0 0-56.541148 0 41.837036 41.837036 0 0 1-56.541147 0 41.950801 41.950801 0 0 0-26.165924-11.092076 42.121448 42.121448 0 0 0-37.883706 18.913412 43.145332 43.145332 0 0 0-2.758799 42.661832c6.712128 13.680227 20.107943 22.752977 35.181791 23.719978 12.34349-2.588151 25.198922 0.568824 35.011143 8.532366a152.814681 152.814681 0 0 1 58.645798 89.589847z m80.573979 604.43283c-23.29336 0-42.178331-19.112501-42.178331-42.661831v-49.914343h-84.385103c-23.321801 0-42.178331-19.084059-42.178331-42.661832 0-23.549331 18.884971-42.63339 42.178331-42.63339h84.385103v-50.340962h-126.563434c-23.321801 0-42.206772-19.084059-42.206772-42.661831 0-23.549331 18.884971-42.661832 42.206772-42.661832h84.385103l-33.333111-42.63339a42.946244 42.946244 0 0 1-8.447042-26.023718c0.028441-13.196727 6.114863-25.62554 16.467467-33.702847 18.515235-14.220611 44.937129-10.580134 59.043975 8.105748l50.625373 65.699221 51.051992-67.405694a41.893919 41.893919 0 0 1 59.072416-8.105748c18.486794 14.277493 22.098829 40.9838 8.020425 59.726564l-33.333111 42.661832h84.385103c23.321801 0 42.178331 19.084059 42.17833 42.661832 0 23.549331-18.884971 42.661832-42.17833 42.661831H540.441221v52.018994h84.385103c23.29336 0 42.178331 19.084059 42.178331 42.661831 0 23.549331-18.884971 42.661832-42.178331 42.661832H540.441221v49.885902c0 23.549331-18.884971 42.661832-42.206772 42.661831z" p-id="2716"></path></svg>