<?xml version="1.0" standalone="no"?><!DOCTYPE svg PUBLIC "-//W3C//DTD SVG 1.1//EN" "http://www.w3.org/Graphics/SVG/1.1/DTD/svg11.dtd"><svg t="1622032474817" class="icon" viewBox="0 0 1024 1024" version="1.1" xmlns="http://www.w3.org/2000/svg" p-id="3629" xmlns:xlink="http://www.w3.org/1999/xlink" width="200" height="200"><defs><style type="text/css"></style></defs><path d="M519.56736 505.55904a35.6352 35.6352 0 0 1-14.848-3.24096l-381.44-168.0128a35.49696 35.49696 0 0 1-2.39104-63.7952l1.62304-0.80384L503.808 95.93856a35.87584 35.87584 0 0 1 30.92992-0.39936l391.77728 160.36864 1.15712 0.60928a35.49184 35.49184 0 0 1-1.9712 63.92832L534.7072 502.272a37.0432 37.0432 0 0 1-15.13984 3.28704z m7.60832-54.016l0.4864 0.21504z m-340.59776-150.016l332.87168 146.62144 341.79072-158.97088-341.15584-139.64288z m715.86816-31.50848l-0.47104 0.22016zM463.1552 936.96a35.88608 35.88608 0 0 1-16.00512-3.78368L101.68832 761.344A35.37408 35.37408 0 0 1 81.92 729.50272v-330.24a35.3792 35.3792 0 0 1 16.4864-29.96736 35.75296 35.75296 0 0 1 34.2528-2.3296l345.4464 158.6432a35.67616 35.67616 0 0 1 20.77184 32.30208v343.43424a35.328 35.328 0 0 1-16.95232 30.2592A35.80416 35.80416 0 0 1 463.1552 936.96z m8.87296-53.43232h0.03584z m-334.336-166.33856l305.44384 151.95648v-298.496l-305.44384-140.288v286.81216z" fill="#2966C1" p-id="3630"></path><path d="M568.56576 936.96a35.58912 35.58912 0 0 1-35.49184-35.5584v-342.94272a35.64032 35.64032 0 0 1 20.61824-32.256l343.13728-158.42816a35.51744 35.51744 0 0 1 50.40128 32.256v329.75872a35.328 35.328 0 0 1-19.6352 31.77472l-343.13728 171.63776a35.5584 35.5584 0 0 1-15.89248 3.75808z m3.52256-28.55936z m-12.3392-24.80128h-0.03584z m28.70784-312.44288v298.0864l303.39072-151.75168V431.104z" fill="#FD9A16" p-id="3631"></path></svg>