<?xml version="1.0" standalone="no"?><!DOCTYPE svg PUBLIC "-//W3C//DTD SVG 1.1//EN" "http://www.w3.org/Graphics/SVG/1.1/DTD/svg11.dtd"><svg t="1622536584176" class="icon" viewBox="0 0 1024 1024" version="1.1" xmlns="http://www.w3.org/2000/svg" p-id="3009" xmlns:xlink="http://www.w3.org/1999/xlink" width="200" height="200"><defs><style type="text/css"></style></defs><path d="M979.911111 1024H43.804444c-24.064 0-43.576889-19.114667-43.576888-42.666667v-938.666666C0.227556 19.114667 19.740444 0 43.804444 0c24.035556 0 43.52 19.114667 43.52 42.666667V938.666667h892.586667c24.035556 0 43.52 19.114667 43.52 42.666666s-19.484444 42.666667-43.52 42.666667z m-609.848889-275.2a43.747556 43.747556 0 0 1-34.844444-19.626667L173.169778 482.986667a42.552889 42.552889 0 0 1-1.649778-43.292445c7.395556-13.681778 21.674667-22.471111 37.461333-23.04 15.786667-0.568889 30.72 7.139556 39.111111 20.252445l107.576889 165.546666 46.193778-167.253333a42.951111 42.951111 0 0 1 23.950222-27.306667l189.041778-85.333333a44.003556 44.003556 0 0 1 56.206222 18.773333l75.776 131.413334L895.431111 72.533333a43.292444 43.292444 0 0 1 33.28-28.558222 44.088889 44.088889 0 0 1 41.642667 14.734222c10.097778 11.975111 12.771556 28.387556 6.968889 42.837334l-180.792889 487.68c-5.888 15.616-20.508444 26.453333-37.461334 27.733333a43.804444 43.804444 0 0 1-41.386666-21.333333l-102.798222-178.346667-134.599112 60.16-67.953777 240.213333c-4.579556 16.128-18.375111 28.16-35.271111 30.72l-6.968889 0.426667z" p-id="3010"></path></svg>